<svg width="77" height="77" viewBox="0 0 77 77" fill="none" xmlns="http://www.w3.org/2000/svg">
<g clip-path="url(#clip0)">
<path d="M31.6785 36.1898C33.2764 35.3861 34.4844 34.4909 35.3122 33.5235C36.785 31.7812 37.5117 29.471 37.5117 26.6074C37.5117 23.8207 36.785 21.4383 35.3315 19.441C32.9058 16.1874 28.8004 14.5222 22.996 14.4355H0V61.3757H21.4414C23.8575 61.3757 26.0955 61.1688 28.1651 60.7452C30.2346 60.3169 32.025 59.5324 33.5411 58.3869C34.8887 57.3906 36.0149 56.1537 36.9101 54.6954C38.3251 52.4911 39.0326 49.9932 39.0326 47.2114C39.0326 44.5161 38.4117 42.2204 37.1796 40.3337C35.9331 38.4471 34.1042 37.0658 31.6785 36.1898ZM9.48622 22.5886H19.8436C22.1201 22.5886 23.9971 22.834 25.4698 23.3202C27.1736 24.0276 28.0255 25.4667 28.0255 27.6614C28.0255 29.6299 27.3757 31.0063 26.0907 31.7812C24.796 32.5561 23.1163 32.9459 21.0564 32.9459H9.48622V22.5886ZM25.8645 52.4045C24.719 52.958 23.1067 53.2323 21.042 53.2323H9.48622V40.714H21.2008C23.2415 40.7284 24.8297 40.9979 25.9656 41.5033C27.987 42.4177 28.9929 44.0926 28.9929 46.5424C28.9929 49.4301 27.9533 51.3745 25.8645 52.4045Z" fill="#898585"/>
<path d="M69.5993 16.6254H49.207V22.4682H69.5993V16.6254Z" fill="#898585"/>
<path d="M76.6838 39.684C76.2603 36.9647 75.3266 34.5727 73.8731 32.508C72.28 30.1689 70.2586 28.4555 67.7992 27.3726C65.3495 26.2849 62.5917 25.7411 59.5211 25.7459C54.3664 25.7459 50.1792 27.3582 46.9402 30.5588C43.7107 33.769 42.0936 38.3845 42.0936 44.4007C42.0936 50.8162 43.8791 55.4511 47.4696 58.2955C51.0455 61.1447 55.175 62.5645 59.8628 62.5645C65.5372 62.5645 69.9506 60.8752 73.103 57.5062C75.1196 55.3789 76.2603 53.2853 76.5106 51.2302H67.1158C66.5719 52.2457 65.9415 53.0398 65.2195 53.6173C63.9104 54.6762 62.2066 55.2056 60.1179 55.2056C58.1301 55.2056 56.4456 54.7676 55.0402 53.8965C52.7204 52.5008 51.5076 50.0558 51.3536 46.5761H76.9919C77.0304 43.5777 76.9341 41.2723 76.6838 39.684ZM51.5846 40.584C51.9215 38.3268 52.7397 36.5364 54.0392 35.2128C55.3386 33.8941 57.1772 33.2299 59.5307 33.2251C61.7013 33.2251 63.5158 33.846 64.9933 35.0925C66.4516 36.3487 67.2746 38.1728 67.4431 40.584H51.5846Z" fill="#898585"/>
</g>
<defs>
<clipPath id="clip0">
<rect width="77" height="77" fill="white"/>
</clipPath>
</defs>
</svg>
