<svg width="52" height="52" viewBox="0 0 52 52" fill="none" xmlns="http://www.w3.org/2000/svg">
<path d="M25.9968 0.54126C11.6415 0.54126 0 12.2283 0 26.6453C0 38.1763 7.449 47.9588 17.784 51.4135C19.084 51.654 19.5585 50.848 19.5585 50.1558C19.5585 49.535 19.5357 47.8938 19.5227 45.7163C12.2915 47.2925 10.764 42.216 10.764 42.216C9.58425 39.2 7.878 38.3973 7.878 38.3973C5.51525 36.7788 8.0535 36.8113 8.0535 36.8113C10.6632 36.9965 12.0348 39.5023 12.0348 39.5023C14.3553 43.49 18.122 42.3395 19.604 41.67C19.838 39.9833 20.5107 38.8328 21.255 38.1795C15.483 37.5198 9.412 35.2805 9.412 25.2803C9.412 22.43 10.426 20.0998 12.09 18.2733C11.8203 17.6135 10.9298 14.9583 12.3435 11.367C12.3435 11.367 14.5275 10.665 19.4935 14.0418C21.567 13.4633 23.79 13.174 26.0033 13.1643C28.21 13.1773 30.4362 13.4633 32.513 14.045C37.4757 10.6683 39.6565 11.3703 39.6565 11.3703C41.0735 14.9648 40.183 17.6168 39.9165 18.2765C41.5837 20.103 42.588 22.4333 42.588 25.2835C42.588 35.3098 36.5105 37.5165 30.719 38.1633C31.6517 38.9693 32.4837 40.5618 32.4837 42.996C32.4837 46.4865 32.4512 49.301 32.4512 50.1558C32.4512 50.8545 32.9192 51.667 34.2387 51.4103C44.5575 47.9523 52 38.173 52 26.6453C52 12.2283 40.3585 0.54126 25.9968 0.54126Z" fill="#898585"/>
</svg>
