<svg width="51" height="51" viewBox="0 0 51 51" fill="none" xmlns="http://www.w3.org/2000/svg">
<path d="M11.4049 15.9375H0V51H11.4049V15.9375Z" fill="#898585"/>
<path d="M42.4703 16.3487C42.3491 16.3104 42.2344 16.269 42.1069 16.2339C41.9539 16.1989 41.8009 16.1702 41.6447 16.1447C41.0391 16.0236 40.3761 15.9375 39.5983 15.9375C32.9492 15.9375 28.7321 20.7729 27.3424 22.6408V15.9375H15.9375V51H27.3424V31.875C27.3424 31.875 35.9614 19.8709 39.5983 28.6875C39.5983 36.5574 39.5983 51 39.5983 51H51V27.3392C51 22.0416 47.3694 17.6269 42.4703 16.3487Z" fill="#898585"/>
<path d="M5.57812 11.1562C8.65884 11.1562 11.1562 8.65884 11.1562 5.57812C11.1562 2.49741 8.65884 0 5.57812 0C2.49741 0 0 2.49741 0 5.57812C0 8.65884 2.49741 11.1562 5.57812 11.1562Z" fill="#898585"/>
</svg>
